<svg width="20" height="18" viewBox="0 0 20 18" fill="none" xmlns="http://www.w3.org/2000/svg">
<path d="M0.690857 10.621H2.31993V17.1372C2.31993 17.5212 2.63411 17.8354 3.0181 17.8354H7.78894C8.17293 17.8354 8.48711 17.5212 8.48711 17.1372V12.3664H11.3961V17.1372C11.3961 17.5212 11.7103 17.8354 12.0943 17.8354H16.6324C17.0164 17.8354 17.3306 17.5212 17.3306 17.1372V10.621H19.3087C19.588 10.621 19.844 10.4464 19.9487 10.1905C20.0534 9.93448 19.9952 9.63192 19.7974 9.43409L10.698 0.20664C10.4303 -0.0610054 9.98817 -0.0726279 9.72052 0.195017L0.213802 9.42247C0.00435151 9.6203 -0.0538429 9.92281 0.0508824 10.1905C0.155608 10.4581 0.411589 10.621 0.690857 10.621ZM10.186 1.68442L17.6331 9.22464H16.6324C16.2484 9.22464 15.9342 9.53882 15.9342 9.92281V16.4391H12.7924V11.6682C12.7924 11.2842 12.4783 10.9701 12.0943 10.9701H7.78894C7.40494 10.9701 7.09077 11.2842 7.09077 11.6682V16.4391H3.71627V9.92281C3.71627 9.53882 3.40209 9.22464 3.0181 9.22464H2.41303L10.186 1.68442Z" fill="white"/>
</svg>
